<svg id="Graphic_Elements" data-name="Graphic Elements" xmlns="http://www.w3.org/2000/svg" viewBox="0 0 1200 1200"><title>job684-272-v</title><path d="M479.51,749.45a205.66,205.66,0,0,0,55,34.39l.14-.33,7.25-78.89Z" style="fill:none"/><path d="M805,514.44l75.6-31.31a290,290,0,0,0-61.54-91.86l-2.9,2.9L770,458.5A207.93,207.93,0,0,1,805,514.44Z" style="fill:none"/><path d="M572.75,741l-36,43.33-.14.33A203.56,203.56,0,0,0,582,797.36Z" style="fill:none"/><path d="M467.79,553.41l-43.34-36-.32-.13a204.11,204.11,0,0,0-12.7,45.42Z" style="fill:none"/><path d="M504.18,666.85l-78.88,7.26-.34.14a205.66,205.66,0,0,0,34.39,55Z" style="fill:none"/><path d="M820.49,389.86a292,292,0,0,1,62,92.51L994.32,436a1.2,1.2,0,0,1,.7,0,412.05,412.05,0,0,0-88.58-132.21,1,1,0,0,1-.24.36Z" style="fill:none"/><path d="M748.63,440a205.63,205.63,0,0,0-55-34.38l-.14.33-7.26,78.88Z" style="fill:none"/><path d="M818.79,626.45A205.07,205.07,0,0,1,805.85,673l75.6,31.31a286.78,286.78,0,0,0,21-91.57Z" style="fill:none"/><path d="M413.51,796.84l-2.9,2.9a290.11,290.11,0,0,0,91.86,61.54l31.32-75.6a207.62,207.62,0,0,1-55.94-35Z" style="fill:none"/><path d="M772.76,214.48,726.43,326.33a291.91,291.91,0,0,1,92.51,62l85.71-85.71a1,1,0,0,1,.36-.24,411.93,411.93,0,0,0-132.22-88.58A1.06,1.06,0,0,1,772.76,214.48Z" style="fill:none"/><path d="M814.63,392.62l2.9-2.9a290.11,290.11,0,0,0-91.86-61.54l-31.32,75.6a207.38,207.38,0,0,1,55.94,35Z" style="fill:none"/><path d="M423.12,675l-75.6,31.31a289.89,289.89,0,0,0,61.54,91.86l2.9-2.89L458.15,731A207.62,207.62,0,0,1,423.12,675Z" style="fill:none"/><path d="M724,522.6l78.88-7.26.33-.13a205.51,205.51,0,0,0-34.39-55Z" style="fill:none"/><path d="M632.06,883.13a286.71,286.71,0,0,0,91.57-21l-31.31-75.6a205.65,205.65,0,0,1-46.52,12.94Z" style="fill:none"/><path d="M694.35,785.68l31.32,75.6a290.11,290.11,0,0,0,91.86-61.54l-2.9-2.9-64.34-46.19A207.62,207.62,0,0,1,694.35,785.68Z" style="fill:none"/><path d="M646.14,797.36a203.56,203.56,0,0,0,45.42-12.69l-.13-.32-36-43.34Z" style="fill:none"/><path d="M686.19,704.62l7.26,78.89.14.33a205.66,205.66,0,0,0,55-34.39Z" style="fill:none"/><path d="M582.34,799.45a205.65,205.65,0,0,1-46.52-12.94l-31.31,75.6a286.71,286.71,0,0,0,91.57,21Z" style="fill:none"/><path d="M760.35,636.05l43.34,36,.32.13a203.64,203.64,0,0,0,12.7-45.41Z" style="fill:none"/><path d="M816.71,562.66A203.58,203.58,0,0,0,804,517.24l-.32.13-43.34,36Z" style="fill:none"/><path d="M902.47,576.74a286.84,286.84,0,0,0-21-91.58l-75.6,31.32A205.13,205.13,0,0,1,818.79,563Z" style="fill:none"/><path d="M768.79,729.29a205.66,205.66,0,0,0,34.39-55l-.33-.14L724,666.85Z" style="fill:none"/><path d="M816.18,795.28l2.9,2.9a289.89,289.89,0,0,0,61.54-91.86L805,675A207.62,207.62,0,0,1,770,731Z" style="fill:none"/><path d="M457.41,213.64,503.74,325.5a288.91,288.91,0,0,1,92.67-21.19l17.66-107.58,17.66,107.58A288.91,288.91,0,0,1,724.4,325.5l46.34-111.86a1,1,0,0,1,.47-.52,415.26,415.26,0,0,0-314.28,0A1.11,1.11,0,0,1,457.41,213.64Z" style="fill:none"/><path d="M770.74,975.82,724.4,864a288.65,288.65,0,0,1-92.67,21.2L614.07,992.73,596.41,885.15A288.65,288.65,0,0,1,503.74,864L457.41,975.82a1.11,1.11,0,0,1-.46.52,415.28,415.28,0,0,0,314.24,0A1.1,1.1,0,0,1,770.74,975.82Z" style="fill:none"/><path d="M995.16,438.06,883.3,484.4a288.91,288.91,0,0,1,21.19,92.67l107.58,17.66L904.49,612.39a289,289,0,0,1-21.19,92.67l111.86,46.33a1.13,1.13,0,0,1,.52.47,415.36,415.36,0,0,0,0-314.27A1.08,1.08,0,0,1,995.16,438.06Z" style="fill:none"/><path d="M533.79,403.78l-31.32-75.6a290.11,290.11,0,0,0-91.86,61.54l2.91,2.9,64.33,46.19A207.38,207.38,0,0,1,533.79,403.78Z" style="fill:none"/><path d="M325.67,612.72a286.78,286.78,0,0,0,21,91.57L422.29,673a205.21,205.21,0,0,1-12.94-46.53Z" style="fill:none"/><path d="M818.94,801.15a292,292,0,0,1-92.51,62L772.76,975a1.05,1.05,0,0,1,0,.7A412.09,412.09,0,0,0,905,887.1a1.26,1.26,0,0,1-.36-.24Z" style="fill:none"/><path d="M994.32,753.42,882.46,707.09a292,292,0,0,1-62,92.5l85.71,85.72a.92.92,0,0,1,.24.35A411.78,411.78,0,0,0,995,753.47a1.26,1.26,0,0,1-.27,0A1.06,1.06,0,0,1,994.32,753.42Z" style="fill:none"/><path d="M459.35,460.17a205.66,205.66,0,0,0-34.39,55l.33.13,78.88,7.26Z" style="fill:none"/><path d="M614.07,129.91c-256.3,0-464.82,208.52-464.82,464.82s208.52,464.82,464.82,464.82S1078.89,851,1078.89,594.73,870.37,129.91,614.07,129.91Zm-439.7,474.6-25.05-9.78,25.05-9.79,25,9.79Zm879.4-19.57,25,9.79-25,9.78-25.06-9.78Zm-146.53,303c-78.3,78.31-182.39,121.44-293.11,121.45l9.72,24.89-9.78,25-9.78-25,9.72-24.89c-110.72,0-214.81-43.14-293.11-121.45S199.44,705.47,199.44,594.73,242.58,379.87,320.9,301.55,503.32,180.11,614.05,180.1l-9.76-25,9.78-25.06,9.78,25.06-9.76,25c110.73,0,214.84,43.14,293.15,121.45S1028.7,484,1028.7,594.73,985.56,809.58,907.24,887.9Z" style="fill:none"/><path d="M412,394.17l-2.9-2.9a290,290,0,0,0-61.54,91.86l75.6,31.32a207.62,207.62,0,0,1,35-55.94Z" style="fill:none"/><path d="M409.35,563a205.13,205.13,0,0,1,12.94-46.52l-75.6-31.32a286.84,286.84,0,0,0-21,91.58Z" style="fill:none"/><path d="M455.38,975l46.33-111.86a292.16,292.16,0,0,1-92.51-62l-85.71,85.71a1.26,1.26,0,0,1-.36.24,412.09,412.09,0,0,0,132.22,88.58A1.05,1.05,0,0,1,455.38,975Z" style="fill:none"/><path d="M596.08,306.33a286.71,286.71,0,0,0-91.57,21l31.31,75.59A205.63,205.63,0,0,1,582.34,390Z" style="fill:none"/><path d="M233.82,436l111.86,46.34a292,292,0,0,1,62-92.51l-85.71-85.71a1.19,1.19,0,0,1-.24-.36A412,412,0,0,0,233.12,436,1.12,1.12,0,0,1,233.82,436Z" style="fill:none"/><path d="M233,751.39l111.87-46.33a288.71,288.71,0,0,1-21.2-92.67L216.07,594.73l107.58-17.66a288.91,288.91,0,0,1,21.19-92.67L233,438.06a1.08,1.08,0,0,1-.52-.47,415.36,415.36,0,0,0,0,314.27A1.13,1.13,0,0,1,233,751.39Z" style="fill:none"/><path d="M645.8,390a205.63,205.63,0,0,1,46.52,12.93l31.32-75.59a286.84,286.84,0,0,0-91.58-21Z" style="fill:none"/><path d="M409.2,388.31a292,292,0,0,1,92.51-62L455.38,214.47a1,1,0,0,1,0-.69,411.78,411.78,0,0,0-132.21,88.58,1,1,0,0,1,.35.24Z" style="fill:none"/><path d="M655.39,448.45l36-43.35.13-.31a203,203,0,0,0-45.42-12.7Z" style="fill:none"/><path d="M411.43,626.8a204.18,204.18,0,0,0,12.7,45.41l.31-.12,43.35-36Z" style="fill:none"/><path d="M582,392.09a203,203,0,0,0-45.42,12.7l.14.32,36,43.34Z" style="fill:none"/><path d="M541.94,484.83l-7.25-78.89-.14-.32a205.63,205.63,0,0,0-55,34.38Z" style="fill:none"/><path d="M407.65,799.59a292,292,0,0,1-62-92.5L233.82,753.42a1.06,1.06,0,0,1-.42.09,1.26,1.26,0,0,1-.27,0A411.94,411.94,0,0,0,321.7,885.66a1,1,0,0,1,.24-.35Z" style="fill:none"/><path d="M820.49,799.59a292,292,0,0,0,62-92.5l-1.84-.77a289.89,289.89,0,0,1-61.54,91.86Z"/><path d="M726.43,863.12a292,292,0,0,0,92.51-62l-1.41-1.41a290.11,290.11,0,0,1-91.86,61.54Z"/><path d="M902.47,576.74l2,.33A288.91,288.91,0,0,0,883.3,484.4l-1.85.76A286.84,286.84,0,0,1,902.47,576.74Z"/><path d="M631.73,885.15A288.65,288.65,0,0,0,724.4,864l-.77-1.84a286.71,286.71,0,0,1-91.57,21Z"/><path d="M596.41,304.31a288.91,288.91,0,0,0-92.67,21.19l.77,1.85a286.71,286.71,0,0,1,91.57-21Z"/><path d="M723.64,327.35l.76-1.85a288.91,288.91,0,0,0-92.67-21.19l.33,2A286.84,286.84,0,0,1,723.64,327.35Z"/><path d="M409.2,801.15a292.16,292.16,0,0,0,92.51,62l.76-1.84a290.11,290.11,0,0,1-91.86-61.54Z"/><path d="M818.94,388.31a291.91,291.91,0,0,0-92.51-62l-.76,1.85a290.11,290.11,0,0,1,91.86,61.54Z"/><path d="M504.51,862.11l-.77,1.84a288.65,288.65,0,0,0,92.67,21.2l-.33-2A286.71,286.71,0,0,1,504.51,862.11Z"/><path d="M501.71,326.33a292,292,0,0,0-92.51,62l1.41,1.41a290.11,290.11,0,0,1,91.86-61.54Z"/><path d="M407.65,389.86a292,292,0,0,0-62,92.51l1.84.76a290,290,0,0,1,61.54-91.86Z"/><path d="M345.68,707.09a292,292,0,0,0,62,92.5l1.41-1.41a289.89,289.89,0,0,1-61.54-91.86Z"/><path d="M881.45,704.29l1.85.77a289,289,0,0,0,21.19-92.67l-2,.33A286.78,286.78,0,0,1,881.45,704.29Z"/><path d="M323.65,612.39a288.71,288.71,0,0,0,21.2,92.67l1.84-.77a286.78,286.78,0,0,1-21-91.57Z"/><path d="M882.46,482.37a292,292,0,0,0-62-92.51l-1.41,1.41a290,290,0,0,1,61.54,91.86Z"/><path d="M346.69,485.16l-1.85-.76a288.91,288.91,0,0,0-21.19,92.67l2-.33A286.84,286.84,0,0,1,346.69,485.16Z"/><path d="M748.63,749.45a205.66,205.66,0,0,1-55,34.39l.76,1.84a207.62,207.62,0,0,0,55.94-35Z"/><path d="M409.35,626.45A205.21,205.21,0,0,0,422.29,673l1.84-.77a204.18,204.18,0,0,1-12.7-45.41Z"/><path d="M582.34,390a205.63,205.63,0,0,0-46.52,12.93l.76,1.85A203,203,0,0,1,582,392.09Z"/><path d="M477.85,750.65a207.62,207.62,0,0,0,55.94,35l.76-1.84a205.66,205.66,0,0,1-55-34.39Z"/><path d="M816.71,626.8A203.64,203.64,0,0,1,804,672.21l1.84.77a205.07,205.07,0,0,0,12.94-46.53Z"/><path d="M818.79,563a205.13,205.13,0,0,0-12.94-46.52l-1.84.76a203.58,203.58,0,0,1,12.7,45.42Z"/><path d="M645.8,799.45a205.65,205.65,0,0,0,46.52-12.94l-.76-1.84a203.56,203.56,0,0,1-45.42,12.69Z"/><path d="M770,731A207.62,207.62,0,0,0,805,675l-1.84-.76a205.66,205.66,0,0,1-34.39,55Z"/><path d="M768.79,460.17a205.51,205.51,0,0,1,34.39,55l1.84-.77a207.93,207.93,0,0,0-35-55.94Z"/><path d="M582,797.36a203.56,203.56,0,0,1-45.42-12.69l-.76,1.84a205.65,205.65,0,0,0,46.52,12.94Z"/><path d="M479.51,440a205.63,205.63,0,0,1,55-34.38l-.76-1.84a207.38,207.38,0,0,0-55.94,35Z"/><path d="M750.29,438.81a207.38,207.38,0,0,0-55.94-35l-.76,1.84a205.63,205.63,0,0,1,55,34.38Z"/><path d="M411.43,562.66a204.11,204.11,0,0,1,12.7-45.42l-1.84-.76A205.13,205.13,0,0,0,409.35,563Z"/><path d="M459.35,729.29a205.66,205.66,0,0,1-34.39-55l-1.84.76a207.62,207.62,0,0,0,35,55.94Z"/><path d="M646.14,392.09a203,203,0,0,1,45.42,12.7l.76-1.85A205.63,205.63,0,0,0,645.8,390Z"/><path d="M458.15,458.51a207.62,207.62,0,0,0-35,55.94l1.84.76a205.66,205.66,0,0,1,34.39-55Z"/><path d="M770.74,213.64,724.4,325.5l-.76,1.85-31.32,75.59-.76,1.85-.13.31,2.36-2.84-.34,3.69.14-.33.76-1.84,31.32-75.6.76-1.85,46.33-111.85a1.06,1.06,0,0,0,0-.7l-1.58-.66A1,1,0,0,0,770.74,213.64Z"/><path d="M457.41,975.82,503.74,864l.77-1.84,31.31-75.6.76-1.84.14-.33-2.37,2.86.34-3.69-.14.33-.76,1.84-31.32,75.6-.76,1.84L455.38,975a1.05,1.05,0,0,0,0,.7l1.6.66A1.11,1.11,0,0,0,457.41,975.82Z"/><path d="M409.2,801.15l1.41-1.41,2.9-2.9-5.5,3.95,3.95-5.5-2.9,2.89-1.41,1.41-85.71,85.72a1,1,0,0,0-.24.35l.71.73c.24.24.49.47.72.71a1.26,1.26,0,0,0,.36-.24Z"/><path d="M818.94,388.31l-1.41,1.41-2.9,2.9,5.5-3.95-4,5.5,2.9-2.9,1.41-1.41,85.71-85.71a1,1,0,0,0,.24-.36l-.71-.72-.72-.71a1,1,0,0,0-.36.24Z"/><path d="M233.82,753.42l111.86-46.33,1.84-.77L423.12,675l1.84-.76.34-.14-3.7.34,2.84-2.36-.31.12-1.84.77-75.6,31.31-1.84.77L233,751.39a1.13,1.13,0,0,0-.52.47c.22.54.45,1.07.67,1.61a1.26,1.26,0,0,0,.27,0A1.06,1.06,0,0,0,233.82,753.42Z"/><path d="M994.32,436,882.46,482.37l-1.84.76L805,514.44l-1.84.77-.33.13,3.69-.34-2.85,2.37.32-.13,1.84-.76,75.6-31.32,1.85-.76,111.86-46.34a1.08,1.08,0,0,0,.52-.47L995,436A1.2,1.2,0,0,0,994.32,436Z"/><path d="M233,438.06,344.84,484.4l1.85.76,75.6,31.32,1.84.76.32.13L421.6,515l3.69.34-.33-.13-1.84-.76-75.6-31.32-1.84-.76L233.82,436a1.12,1.12,0,0,0-.7,0l-.66,1.58A1.08,1.08,0,0,0,233,438.06Z"/><path d="M995.16,751.39,883.3,705.06l-1.85-.77L805.85,673l-1.84-.77-.32-.13,2.85,2.37-3.69-.34.33.14L805,675l75.6,31.31,1.84.77,111.86,46.33a1.06,1.06,0,0,0,.42.09,1.26,1.26,0,0,0,.27,0c.22-.54.45-1.07.67-1.61A1.13,1.13,0,0,0,995.16,751.39Z"/><path d="M407.65,389.86l1.41,1.41,2.9,2.9-3.95-5.5,5.51,3.95-2.91-2.9-1.41-1.41L323.49,302.6a1,1,0,0,0-.35-.24l-.73.71-.71.72a1.19,1.19,0,0,0,.24.36Z"/><path d="M820.49,799.59l-1.41-1.41-2.9-2.9,4,5.51-5.5-3.95,2.9,2.9,1.41,1.41,85.71,85.71a1.26,1.26,0,0,0,.36.24l.72-.71.71-.73a.92.92,0,0,0-.24-.35Z"/><path d="M772.76,975,726.43,863.12l-.76-1.84-31.32-75.6-.76-1.84-.14-.33.34,3.68-2.36-2.84.13.32.76,1.84,31.31,75.6.77,1.84,46.34,111.87a1.1,1.1,0,0,0,.45.52l1.6-.66A1.05,1.05,0,0,0,772.76,975Z"/><path d="M455.38,214.47l46.33,111.86.76,1.85,31.32,75.6.76,1.84.14.32-.34-3.68,2.37,2.85-.14-.32-.76-1.85-31.31-75.59-.77-1.85L457.41,213.64a1.11,1.11,0,0,0-.48-.52l-1.58.66A1,1,0,0,0,455.38,214.47Z"/><polygon points="501.12 547.94 430.27 518.6 506.32 525.59 504.17 522.6 425.29 515.34 421.6 515 424.45 517.37 467.79 553.41 501.12 547.94"/><polygon points="727.03 641.51 797.86 670.86 721.82 663.86 723.96 666.85 802.85 674.11 806.54 674.45 803.69 672.08 760.35 636.05 727.03 641.51"/><polygon points="567.28 707.68 537.94 778.52 544.94 702.48 541.95 704.62 534.69 783.51 534.35 787.2 536.72 784.34 572.75 741.01 567.28 707.68"/><polygon points="660.86 481.77 690.2 410.93 683.2 486.98 686.19 484.83 693.45 405.95 693.79 402.26 691.43 405.1 655.39 448.45 660.86 481.77"/><polygon points="537.94 778.52 567.28 707.68 564.16 688.67 544.94 702.48 537.94 778.52" style="fill:#fff"/><polygon points="430.27 518.6 501.12 547.94 520.13 544.82 506.32 525.59 430.27 518.6" style="fill:#fff"/><polygon points="690.2 410.93 660.86 481.77 663.98 500.78 683.2 486.98 690.2 410.93" style="fill:#fff"/><polygon points="797.86 670.86 727.03 641.51 708.01 644.64 721.82 663.86 797.86 670.86" style="fill:#fff"/><polygon points="520.13 644.64 501.11 641.51 430.28 670.86 471.42 636.64 467.79 636.05 424.44 672.09 421.6 674.45 425.3 674.11 504.18 666.85 520.13 644.64"/><polygon points="663.98 688.67 660.86 707.68 690.2 778.52 655.99 737.37 655.39 741.01 691.42 784.35 693.79 787.19 693.45 783.51 686.19 704.62 663.98 688.67"/><polygon points="708.01 544.82 727.02 547.94 797.86 518.6 756.71 552.81 760.35 553.41 803.69 517.37 806.54 515 802.85 515.34 723.97 522.6 708.01 544.82"/><polygon points="564.16 500.78 567.28 481.77 537.94 410.93 572.15 452.08 572.75 448.45 536.72 405.11 534.35 402.26 534.69 405.94 541.95 484.83 564.16 500.78"/><polygon points="797.86 518.6 727.02 547.94 756.71 552.81 797.86 518.6" style="fill:#fff"/><polygon points="430.28 670.86 501.11 641.51 471.42 636.64 430.28 670.86" style="fill:#fff"/><polygon points="537.94 410.93 567.28 481.77 572.15 452.08 537.94 410.93" style="fill:#fff"/><polygon points="690.2 778.52 660.86 707.68 655.99 737.37 690.2 778.52" style="fill:#fff"/><polygon points="748.63 440 686.19 484.83 683.2 486.98 663.98 500.78 670.19 538.61 670.19 538.61 805.15 403.65 704.24 544.2 708.01 544.82 723.97 522.6 768.79 460.17 769.99 458.5 816.18 394.17 820.13 388.67 814.63 392.62 750.29 438.81 748.63 440"/><polygon points="459.35 460.17 504.17 522.6 506.32 525.59 520.13 544.82 557.95 538.61 422.99 403.65 563.54 504.56 564.16 500.78 541.95 484.83 479.51 440 477.85 438.81 413.51 392.62 408.01 388.67 411.96 394.17 458.15 458.51 459.35 460.17"/><polygon points="479.51 749.45 541.95 704.62 544.94 702.48 564.16 688.67 557.95 650.85 557.95 650.85 422.99 785.81 523.9 645.26 520.13 644.64 504.18 666.85 459.35 729.29 458.15 730.95 411.96 795.28 408.01 800.79 413.51 796.84 477.85 750.65 479.51 749.45"/><polygon points="768.79 729.29 723.96 666.85 721.82 663.86 708.01 644.64 670.19 650.85 670.19 650.85 805.15 785.81 664.6 684.9 663.98 688.67 686.19 704.62 748.63 749.45 750.29 750.65 814.63 796.84 820.13 800.79 816.18 795.28 769.99 730.95 768.79 729.29"/><polygon points="422.99 785.81 557.95 650.85 523.9 645.26 422.99 785.81" style="fill:#fff"/><polygon points="805.15 785.81 670.19 650.85 664.6 684.9 805.15 785.81" style="fill:#fff"/><polygon points="805.15 403.65 670.19 538.61 704.24 544.2 805.15 403.65" style="fill:#fff"/><polygon points="422.99 403.65 557.95 538.61 557.95 538.61 563.54 504.56 422.99 403.65" style="fill:#fff"/><path d="M818.79,563l-2.08-.34-56.36-9.25-3.64-.6L727,547.94l-19-3.12-3.78-.62-34-5.59h0L664,500.78l-3.12-19-5.47-33.32-9.25-56.36L645.8,390l-13.74-83.68-.33-2L614.07,196.73,596.41,304.31l-.33,2L582.34,390l-.34,2.08-9.25,56.36-.59,3.63-4.88,29.69-3.12,19-.62,3.78L558,538.61h0l-37.83,6.21-19,3.12-33.32,5.47-56.36,9.25-2.08.34-83.68,13.74-2,.33L216.07,594.73l107.58,17.66,2,.33,83.68,13.73,2.08.35,56.36,9.25,3.63.59,29.69,4.88,19,3.12,3.77.62L558,650.85h0l6.21,37.82,3.12,19L572.75,741,582,797.36l.34,2.09,13.74,83.68.33,2,17.66,107.58,17.66-107.58.33-2,13.74-83.68.34-2.09L655.39,741l.6-3.64,4.87-29.69,3.12-19,.62-3.77,5.59-34h0L708,644.64l19-3.12,33.32-5.47,56.36-9.25,2.08-.35,83.68-13.73,2-.33,107.58-17.66L904.49,577.07l-2-.33ZM663.11,545.7h0l-49,47.66V247Zm-396.79,49,298.72-49h0l47.65,49Zm298.72,49h0l49-47.65V942.48Zm98.06,0h0l-47.65-49H961.82Z"/><polygon points="614.07 596.11 565.04 643.76 565.04 643.76 614.07 942.48 614.07 596.11" style="fill:#fff"/><polygon points="614.07 593.35 663.1 545.69 663.11 545.7 614.07 246.98 614.07 593.35" style="fill:#fff"/><polygon points="615.45 594.73 663.1 643.76 663.1 643.76 961.82 594.73 615.45 594.73" style="fill:#fff"/><polygon points="612.69 594.73 565.04 545.69 565.03 545.69 266.32 594.73 612.69 594.73" style="fill:#fff"/><path d="M614.07,127.59c-257.58,0-467.14,209.56-467.14,467.14s209.56,467.14,467.14,467.14,467.14-209.56,467.14-467.14S871.65,127.59,614.07,127.59Zm0,932c-256.3,0-464.82-208.52-464.82-464.82S357.77,129.91,614.07,129.91s464.82,208.52,464.82,464.82S870.37,1059.55,614.07,1059.55Z"/><path d="M614.09,180.1l0,.06,0-.06c-110.73,0-214.84,43.14-293.15,121.45S199.44,484,199.44,594.73,242.58,809.58,320.9,887.9,503.29,1009.34,614,1009.35l.06-.16.06.16c110.72,0,214.81-43.14,293.11-121.45S1028.7,705.47,1028.7,594.73,985.56,379.87,907.24,301.55,724.82,180.11,614.09,180.1ZM995.68,751.86c-.22.54-.45,1.07-.67,1.61a411.78,411.78,0,0,1-88.57,132.19l-.71.73-.72.71a412.09,412.09,0,0,1-132.22,88.58l-1.6.66a415.28,415.28,0,0,1-314.24,0l-1.6-.66A412.09,412.09,0,0,1,323.13,887.1c-.23-.24-.48-.47-.72-.71l-.71-.73a411.94,411.94,0,0,1-88.57-132.19c-.22-.54-.45-1.07-.67-1.61a415.36,415.36,0,0,1,0-314.27l.66-1.58A412,412,0,0,1,321.7,303.79l.71-.72.73-.71a411.78,411.78,0,0,1,132.21-88.58l1.58-.66a415.26,415.26,0,0,1,314.28,0l1.58.66A411.93,411.93,0,0,1,905,302.36l.72.71.71.72A412.05,412.05,0,0,1,995,436l.66,1.59a415.36,415.36,0,0,1,0,314.27Z"/><polygon points="598.7 60.2 629.19 105.81 637.07 105.81 637.07 47.77 629.7 47.77 629.7 93.34 599.22 47.77 591.34 47.77 591.34 105.81 598.7 105.81 598.7 60.2"/><polygon points="1114.37 615.08 1114.37 595.33 1146.48 595.33 1146.48 588.52 1114.37 588.52 1114.37 570.74 1148.65 570.74 1148.65 563.89 1106.68 563.89 1106.68 621.93 1150 621.93 1150 615.08 1114.37 615.08"/><path d="M107.81,601.19q-1.78,7.13-2.89,12.63a155.59,155.59,0,0,0-4.52-20.55l-8.31-29.38H82.82l-11,39.2q-.41,1.42-2.62,10.73-1-5.91-2.45-11.88l-8.83-38.05H50l15.4,58h7.84l12.32-44.22q.78-2.82,1.7-6.81.27,1.26,1.82,6.81l12.23,44.22h7.41l15.92-58h-7.73Z"/><path d="M631.36,1109.69q-3.5-1.57-12.85-3.7t-11.58-4.14a6.59,6.59,0,0,1-2.26-5.15,7.63,7.63,0,0,1,3.19-6.15Q611,1088,618,1088q6.69,0,10.12,2.81t4,8.32l7.36-.56a17.52,17.52,0,0,0-2.85-9.14,16.45,16.45,0,0,0-7.58-6.12,29,29,0,0,0-11.38-2.08,27.6,27.6,0,0,0-10.65,2,15.4,15.4,0,0,0-7.29,5.8,14.8,14.8,0,0,0-2.5,8.22,13.23,13.23,0,0,0,2,7.22,15.67,15.67,0,0,0,6.2,5.41q3.21,1.7,11.21,3.62A104.42,104.42,0,0,1,627,1116.3a11.81,11.81,0,0,1,5.23,3.43,7.59,7.59,0,0,1,1.58,4.77,8.36,8.36,0,0,1-1.64,5,10.78,10.78,0,0,1-5,3.58,21.39,21.39,0,0,1-7.76,1.31,22.26,22.26,0,0,1-8.91-1.72,13.08,13.08,0,0,1-5.84-4.52,16,16,0,0,1-2.4-7.14l-7.24.63a19.51,19.51,0,0,0,3.19,10.43,18.4,18.4,0,0,0,8.35,6.91,33.4,33.4,0,0,0,13.2,2.3A26.51,26.51,0,0,0,631,1139a17.5,17.5,0,0,0,7.62-6.37,15.81,15.81,0,0,0,2.65-8.73,14.42,14.42,0,0,0-2.41-8.26A17.65,17.65,0,0,0,631.36,1109.69Z"/><polygon points="1078.82 594.73 1053.77 584.94 1028.71 594.73 1053.77 604.51 1078.82 594.73"/><polygon points="149.31 594.73 174.37 604.51 199.42 594.73 174.37 584.94 149.31 594.73"/><polygon points="614.01 1009.35 604.29 1034.24 614.07 1059.29 623.86 1034.24 614.13 1009.35 614.07 1009.19 614.01 1009.35"/><polygon points="614.09 180.1 623.85 155.11 614.07 130.05 604.29 155.11 614.05 180.1 614.07 180.16 614.09 180.1"/></svg>